# This file uses centimeters as units for non-parametric coordinates.

mtllib Tree2.mtl
g default
v 4.610282 7.574213 -4.844968
v 0.000000 7.574213 -6.851820
v -4.610282 7.574213 -4.844968
v -6.519924 7.574213 0.000000
v -4.610282 7.574213 4.844968
v 0.000000 7.574213 6.851820
v 4.610283 7.574213 4.844969
v 6.519924 7.574213 0.000000
v 0.000000 21.001449 0.000000
vt 0.676777 0.073223
vt 0.500000 0.000000
vt 0.323223 0.073223
vt 0.250000 0.250000
vt 0.323223 0.426777
vt 0.500000 0.500000
vt 0.676777 0.426777
vt 0.750000 0.250000
vt 0.250000 0.500000
vt 0.312500 0.500000
vt 0.375000 0.500000
vt 0.437500 0.500000
vt 0.500000 0.500000
vt 0.562500 0.500000
vt 0.625000 0.500000
vt 0.687500 0.500000
vt 0.750000 0.500000
vt 0.500000 1.000000
vn 0.000000 -1.000000 0.000000
vn 0.000000 -1.000000 0.000000
vn 0.000000 -1.000000 0.000000
vn 0.000000 -1.000000 0.000000
vn 0.000000 -1.000000 0.000000
vn 0.000000 -1.000000 0.000000
vn 0.000000 -1.000000 0.000000
vn 0.000000 -1.000000 0.000000
vn 0.361511 0.423792 -0.830488
vn 0.361511 0.423792 -0.830488
vn 0.361511 0.423792 -0.830488
vn -0.361511 0.423792 -0.830488
vn -0.361511 0.423792 -0.830488
vn -0.361511 0.423792 -0.830488
vn -0.847842 0.411691 -0.334177
vn -0.847842 0.411691 -0.334177
vn -0.847842 0.411691 -0.334177
vn -0.847842 0.411691 0.334177
vn -0.847842 0.411691 0.334177
vn -0.847842 0.411691 0.334177
vn -0.361511 0.423792 0.830488
vn -0.361511 0.423792 0.830488
vn -0.361511 0.423792 0.830488
vn 0.361511 0.423792 0.830488
vn 0.361511 0.423792 0.830488
vn 0.361511 0.423792 0.830488
vn 0.847842 0.411691 0.334177
vn 0.847842 0.411691 0.334177
vn 0.847842 0.411691 0.334177
vn 0.847842 0.411691 -0.334177
vn 0.847842 0.411691 -0.334177
vn 0.847842 0.411691 -0.334177
s off
g pCone1
usemtl phong1SG
f 1/1/1 8/8/2 7/7/3 6/6/4 5/5/5 4/4/6 3/3/7 2/2/8
f 1/9/9 2/10/10 9/18/11
f 2/10/12 3/11/13 9/18/14
f 3/11/15 4/12/16 9/18/17
f 4/12/18 5/13/19 9/18/20
f 5/13/21 6/14/22 9/18/23
f 6/14/24 7/15/25 9/18/26
f 7/15/27 8/16/28 9/18/29
f 8/16/30 1/17/31 9/18/32
g default
v 0.309017 0.050481 -0.951057
v -0.809017 0.050481 -0.587785
v -0.809017 0.050481 0.587785
v 0.309017 0.050481 0.951057
v 1.000000 0.050481 0.000000
v 0.309017 8.207955 -0.951057
v -0.809017 8.207955 -0.587785
v -0.809017 8.207955 0.587785
v 0.309017 8.207955 0.951057
v 1.000000 8.207955 0.000000
v 0.000000 0.050481 0.000000
v 0.000000 16.258805 0.000000
vt 0.548284 0.007647
vt 0.373591 0.064409
vt 0.373591 0.248091
vt 0.548284 0.304853
vt 0.656250 0.156250
vt 0.375000 0.312500
vt 0.425000 0.312500
vt 0.475000 0.312500
vt 0.525000 0.312500
vt 0.575000 0.312500
vt 0.625000 0.312500
vt 0.375000 0.688440
vt 0.425000 0.688440
vt 0.475000 0.688440
vt 0.525000 0.688440
vt 0.575000 0.688440
vt 0.625000 0.688440
vt 0.548284 0.695147
vt 0.373591 0.751909
vt 0.373591 0.935591
vt 0.548284 0.992353
vt 0.656250 0.843750
vt 0.500000 0.150000
vt 0.500000 0.837500
vn -0.309017 0.000000 -0.951057
vn -0.309017 0.000000 -0.951057
vn -0.309017 0.000000 -0.951057
vn -0.309017 0.000000 -0.951057
vn -1.000000 0.000000 -0.000000
vn -1.000000 0.000000 -0.000000
vn -1.000000 0.000000 -0.000000
vn -1.000000 0.000000 -0.000000
vn -0.309017 0.000000 0.951057
vn -0.309017 0.000000 0.951057
vn -0.309017 0.000000 0.951057
vn -0.309017 0.000000 0.951057
vn 0.809017 0.000000 0.587785
vn 0.809017 0.000000 0.587785
vn 0.809017 0.000000 0.587785
vn 0.809017 0.000000 0.587785
vn 0.809017 0.000000 -0.587785
vn 0.809017 0.000000 -0.587785
vn 0.809017 0.000000 -0.587785
vn 0.809017 0.000000 -0.587785
vn 0.000000 -1.000000 0.000000
vn 0.000000 -1.000000 0.000000
vn 0.000000 -1.000000 0.000000
vn 0.000000 -1.000000 0.000000
vn 0.000000 -1.000000 0.000000
vn 0.000000 -1.000000 0.000000
vn 0.306661 0.123263 -0.943804
vn -0.802847 0.123263 -0.583303
vn 0.000000 1.000000 -0.000000
vn -0.802847 0.123263 0.583303
vn 0.306660 0.123263 0.943804
vn 0.992374 0.123263 0.000000
s off
g pCylinder1
usemtl initialShadingGroup
f 10/24/33 11/25/34 16/31/35 15/30/36
f 11/25/37 12/26/38 17/32/39 16/31/40
f 12/26/41 13/27/42 18/33/43 17/32/44
f 13/27/45 14/28/46 19/34/47 18/33/48
f 14/28/49 10/29/50 15/35/51 19/34/52
s 1
f 11/20/53 10/19/54 20/41/55
f 12/21/56 11/20/53 20/41/55
f 13/22/57 12/21/56 20/41/55
f 14/23/58 13/22/57 20/41/55
f 10/19/54 14/23/58 20/41/55
s 2
f 15/39/59 16/38/60 21/42/61
f 16/38/60 17/37/62 21/42/61
f 17/37/62 18/36/63 21/42/61
f 18/36/63 19/40/64 21/42/61
f 19/40/64 15/39/59 21/42/61
