# This file uses centimeters as units for non-parametric coordinates.

mtllib Trunk_Seeker.mtl
g default
v 0.167221 4.777455 0.632115
v -0.437790 5.140675 0.625974
v -0.437790 6.316077 0.606101
v 0.167221 6.679297 0.599959
v 0.541138 5.728376 0.616037
v 0.167221 4.684716 -4.852992
v -0.437790 5.047935 -4.859133
v 1.249939 6.223338 -4.879007
v 1.854950 6.586557 -4.885148
v 0.541138 5.635637 -4.869070
v 0.000000 5.728376 0.616037
v 1.687729 5.635637 -4.869070
vt 0.548284 0.007647
vt 0.373591 0.064409
vt 0.373591 0.248091
vt 0.548284 0.304853
vt 0.656250 0.156250
vt 0.375000 0.312500
vt 0.425000 0.312500
vt 0.475000 0.312500
vt 0.525000 0.312500
vt 0.575000 0.312500
vt 0.625000 0.312500
vt 0.375000 0.688440
vt 0.425000 0.688440
vt 0.475000 0.688440
vt 0.525000 0.688440
vt 0.575000 0.688440
vt 0.625000 0.688440
vt 0.548284 0.695147
vt 0.373591 0.751909
vt 0.373591 0.935591
vt 0.548284 0.992353
vt 0.656250 0.843750
vt 0.500000 0.150000
vt 0.500000 0.837500
vn -0.514772 -0.857205 0.014493
vn -0.514772 -0.857205 0.014493
vn -0.514772 -0.857205 0.014493
vn -0.514772 -0.857205 0.014493
vn -0.806098 0.576466 -0.133762
vn -0.806098 0.576466 -0.133762
vn -0.806098 0.576466 -0.133762
vn -0.806098 0.576466 -0.133762
vn -0.508435 0.844009 -0.170712
vn -0.508435 0.844009 -0.170712
vn -0.508435 0.844009 -0.170712
vn -0.508435 0.844009 -0.170712
vn 0.888116 -0.436474 0.144013
vn 0.888116 -0.436474 0.144013
vn 0.888116 -0.436474 0.144013
vn 0.888116 -0.436474 0.144013
vn 0.930656 -0.365844 0.006186
vn 0.930656 -0.365844 0.006186
vn 0.930656 -0.365844 0.006186
vn 0.930656 -0.365844 0.006186
vn 0.000000 0.016905 0.999857
vn 0.000000 0.016905 0.999857
vn 0.000000 0.016905 0.999857
vn 0.000000 0.016905 0.999857
vn 0.000000 0.016905 0.999857
vn 0.000000 0.016905 0.999857
vn 0.000000 -0.016905 -0.999857
vn 0.000000 -0.016905 -0.999857
vn 0.000000 0.016905 0.999857
vn 0.000000 -0.016905 -0.999857
vn 0.000000 0.016905 0.999857
vn 0.000000 0.016905 0.999857
s off
g pCylinder4
usemtl initialShadingGroup
f 1/6/1 2/7/2 7/13/3 6/12/4
f 2/7/5 3/8/6 8/14/7 7/13/8
f 3/8/9 4/9/10 9/15/11 8/14/12
f 4/9/13 5/10/14 10/16/15 9/15/16
f 5/10/17 1/11/18 6/17/19 10/16/20
s 1
f 2/2/21 1/1/22 11/23/23
f 3/3/24 2/2/21 11/23/23
f 4/4/25 3/3/24 11/23/23
f 5/5/26 4/4/25 11/23/23
f 1/1/22 5/5/26 11/23/23
s 2
f 6/21/27 7/20/28 12/24/29
f 7/20/28 8/19/30 12/24/29
f 8/19/30 9/18/31 12/24/29
f 9/18/31 10/22/32 12/24/29
f 10/22/32 6/21/27 12/24/29
g default
v 0.309017 0.870155 -0.951057
v -0.809017 0.870155 -0.587785
v -0.809017 0.870155 0.587785
v 0.309017 0.870155 0.951057
v 1.000000 0.870155 0.000000
v 0.309017 5.815592 -0.951057
v -0.809017 5.815592 -0.587785
v -0.809017 9.257191 0.587785
v 0.309017 9.257191 0.951057
v 1.000000 5.815592 0.000000
v 0.000000 0.870155 0.000000
v 0.000000 9.257191 0.000000
vt 0.548284 0.007647
vt 0.373591 0.064409
vt 0.373591 0.248091
vt 0.548284 0.304853
vt 0.656250 0.156250
vt 0.375000 0.312500
vt 0.425000 0.312500
vt 0.475000 0.312500
vt 0.525000 0.312500
vt 0.575000 0.312500
vt 0.625000 0.312500
vt 0.375000 0.688440
vt 0.425000 0.688440
vt 0.475000 0.688440
vt 0.525000 0.688440
vt 0.575000 0.688440
vt 0.625000 0.688440
vt 0.548284 0.695147
vt 0.373591 0.751909
vt 0.373591 0.935591
vt 0.548284 0.992353
vt 0.656250 0.843750
vt 0.500000 0.150000
vt 0.500000 0.837500
vn -0.309017 0.000000 -0.951057
vn -0.309017 0.000000 -0.951057
vn -0.309017 0.000000 -0.951057
vn -0.309017 0.000000 -0.951057
vn -1.000000 0.000000 -0.000000
vn -1.000000 0.000000 -0.000000
vn -1.000000 0.000000 -0.000000
vn -1.000000 0.000000 -0.000000
vn -0.309017 0.000000 0.951057
vn -0.309017 0.000000 0.951057
vn -0.309017 0.000000 0.951057
vn -0.309017 0.000000 0.951057
vn 0.809017 0.000000 0.587785
vn 0.809017 0.000000 0.587785
vn 0.809017 0.000000 0.587785
vn 0.809017 0.000000 0.587785
vn 0.809017 0.000000 -0.587785
vn 0.809017 0.000000 -0.587785
vn 0.809017 0.000000 -0.587785
vn 0.809017 0.000000 -0.587785
vn 0.000000 -1.000000 0.000000
vn 0.000000 -1.000000 0.000000
vn 0.000000 -1.000000 0.000000
vn 0.000000 -1.000000 0.000000
vn 0.000000 -1.000000 0.000000
vn 0.000000 -1.000000 0.000000
vn 0.296744 0.279023 -0.913285
vn -0.380575 0.241899 -0.892551
vn 0.275662 0.451916 -0.848400
vn -0.526419 0.444866 -0.724553
vn 0.851764 0.444866 -0.276755
vn 0.832520 0.241899 -0.498393
s off
g pCylinder2
usemtl initialShadingGroup
f 13/30/33 14/31/34 19/37/35 18/36/36
f 14/31/37 15/32/38 20/38/39 19/37/40
f 15/32/41 16/33/42 21/39/43 20/38/44
f 16/33/45 17/34/46 22/40/47 21/39/48
f 17/34/49 13/35/50 18/41/51 22/40/52
s 1
f 14/26/53 13/25/54 23/47/55
f 15/27/56 14/26/53 23/47/55
f 16/28/57 15/27/56 23/47/55
f 17/29/58 16/28/57 23/47/55
f 13/25/54 17/29/58 23/47/55
s 2
f 18/45/59 19/44/60 24/48/61
f 19/44/60 20/43/62 24/48/61
f 20/43/62 21/42/63 24/48/61
f 21/42/63 22/46/64 24/48/61
f 22/46/64 18/45/59 24/48/61
g default
v 0.309017 -1.000000 -0.951057
v -0.809017 -1.000000 -0.587785
v -0.809017 -1.000000 0.587785
v 0.309017 -1.000000 0.951057
v 1.000000 -1.000000 0.000000
v 0.309017 1.000000 -0.951057
v -0.809017 1.000000 -0.587785
v -0.809017 1.000000 0.587785
v 0.309017 1.000000 0.951057
v 1.000000 1.000000 0.000000
v 0.000000 -1.000000 0.000000
v 0.000000 1.000000 0.000000
vt 0.548284 0.007647
vt 0.373591 0.064409
vt 0.373591 0.248091
vt 0.548284 0.304853
vt 0.656250 0.156250
vt 0.375000 0.312500
vt 0.425000 0.312500
vt 0.475000 0.312500
vt 0.525000 0.312500
vt 0.575000 0.312500
vt 0.625000 0.312500
vt 0.375000 0.688440
vt 0.425000 0.688440
vt 0.475000 0.688440
vt 0.525000 0.688440
vt 0.575000 0.688440
vt 0.625000 0.688440
vt 0.548284 0.695147
vt 0.373591 0.751909
vt 0.373591 0.935591
vt 0.548284 0.992353
vt 0.656250 0.843750
vt 0.500000 0.150000
vt 0.500000 0.837500
vn -0.309017 0.000000 -0.951057
vn -0.309017 0.000000 -0.951057
vn -0.309017 0.000000 -0.951057
vn -0.309017 0.000000 -0.951057
vn -1.000000 0.000000 -0.000000
vn -1.000000 0.000000 -0.000000
vn -1.000000 0.000000 -0.000000
vn -1.000000 0.000000 -0.000000
vn -0.309017 0.000000 0.951057
vn -0.309017 0.000000 0.951057
vn -0.309017 0.000000 0.951057
vn -0.309017 0.000000 0.951057
vn 0.809017 0.000000 0.587785
vn 0.809017 0.000000 0.587785
vn 0.809017 0.000000 0.587785
vn 0.809017 0.000000 0.587785
vn 0.809017 0.000000 -0.587785
vn 0.809017 0.000000 -0.587785
vn 0.809017 0.000000 -0.587785
vn 0.809017 0.000000 -0.587785
vn 0.000000 -1.000000 0.000000
vn 0.000000 -1.000000 0.000000
vn 0.000000 -1.000000 0.000000
vn 0.000000 -1.000000 0.000000
vn 0.000000 -1.000000 0.000000
vn 0.000000 -1.000000 0.000000
vn 0.000000 1.000000 0.000000
vn 0.000000 1.000000 0.000000
vn 0.000000 1.000000 -0.000000
vn 0.000000 1.000000 0.000000
vn 0.000000 1.000000 -0.000000
vn 0.000000 1.000000 -0.000000
s off
g pCylinder1
usemtl initialShadingGroup
f 25/54/65 26/55/66 31/61/67 30/60/68
f 26/55/69 27/56/70 32/62/71 31/61/72
f 27/56/73 28/57/74 33/63/75 32/62/76
f 28/57/77 29/58/78 34/64/79 33/63/80
f 29/58/81 25/59/82 30/65/83 34/64/84
s 1
f 26/50/85 25/49/86 35/71/87
f 27/51/88 26/50/85 35/71/87
f 28/52/89 27/51/88 35/71/87
f 29/53/90 28/52/89 35/71/87
f 25/49/86 29/53/90 35/71/87
s 2
f 30/69/91 31/68/92 36/72/93
f 31/68/92 32/67/94 36/72/93
f 32/67/94 33/66/95 36/72/93
f 33/66/95 34/70/96 36/72/93
f 34/70/96 30/69/91 36/72/93
